<svg width="323" height="80" viewBox="0 0 323 80" fill="none" xmlns="http://www.w3.org/2000/svg">
<g filter="url(#filter0_d_57_30)">
<circle cx="29.5" cy="39" r="5.5" fill="#F85151"/>
<circle cx="291.5" cy="39" r="5.5" fill="#F85151"/>
<path d="M156 34.5L162.102 25.5L168 34.5" stroke="#F85151" stroke-width="3"/>
<path d="M153.106 6.2745L161.157 0.502836C162.491 0.55092 163.874 1.20769 165.327 2.25406C166.832 3.33847 168.346 4.79044 169.894 6.27545L169.9 6.28145C171.433 7.75204 172.999 9.25489 174.574 10.387C176.148 11.5178 177.797 12.3293 179.5 12.3293H179.707H179.914H180.12H180.327H180.534H180.741H180.948H181.155H181.362H181.569H181.776H181.983H182.19H182.397H182.604H182.812H183.019H183.226H183.433H183.64H183.848H184.055H184.262H184.47H184.677H184.885H185.092H185.299H185.507H185.714H185.922H186.13H186.337H186.545H186.752H186.96H187.168H187.376H187.583H187.791H187.999H188.207H188.415H188.623H188.831H189.039H189.247H189.455H189.663H189.871H190.079H190.287H190.495H190.704H190.912H191.12H191.329H191.537H191.745H191.954H192.162H192.371H192.579H192.788H192.997H193.205H193.414H193.623H193.831H194.04H194.249H194.458H194.667H194.876H195.085H195.294H195.503H195.712H195.921H196.131H196.34H196.549H196.758H196.968H197.177H197.387H197.596H197.806H198.015H198.225H198.434H198.644H198.854H199.064H199.273H199.483H199.693H199.903H200.113H200.323H200.533H200.743H200.953H201.164H201.374H201.584H201.795H202.005H202.215H202.426H202.636H202.847H203.058H203.268H203.479H203.69H203.901H204.111H204.322H204.533H204.744H204.955H205.167H205.378H205.589H205.8H206.011H206.223H206.434H206.646H206.857H207.069H207.28H207.492H207.704H207.916H208.127H208.339H208.551H208.763H208.975H209.187H209.4H209.612H209.824H210.036H210.249H210.461H210.674H210.886H211.099H211.311H211.524H211.737H211.95H212.163H212.376H212.589H212.802H213.015H213.228H213.441H213.654H213.868H214.081H214.295H214.508H214.722H214.936H215.149H215.363H215.577H215.791H216.005H216.219H216.433H216.647H216.861H217.075H217.29H217.504H217.719H217.933H218.148H218.362H218.577H218.792H219.007H219.222H219.437H219.652H219.867H220.082H220.297H220.512H220.728H220.943H221.159H221.374H221.59H221.806H222.022H222.237H222.453H222.669H222.885H223.101H223.318H223.534H223.75H223.967H224.183H224.4H224.616H224.833H225.05H225.267H225.484H225.701H225.918H226.135H226.352H226.569H226.787H227.004H227.221H227.439H227.657H227.874H228.092H228.31H228.528H228.746H228.964H229.182H229.4H229.619H229.837H230.056H230.274H230.493H230.712H230.93H231.149H231.368H231.587H231.806H232.026H232.245H232.464H232.684H232.903H233.123H233.342H233.562H233.782H234.002H234.222H234.442H234.662H234.882H235.103H235.323H235.543H235.764H235.985H236.205H236.426H236.647H236.868H237.089H237.31H237.532H237.753H237.974H238.196H238.417H238.639H238.861H239.083H239.305H239.527H239.749H239.971H240.193H240.415H240.638H240.86H241.083H241.306H241.529H241.752H241.975H242.198H242.421H242.644H242.867H243.091H243.314H243.538H243.762H243.986H244.209H244.433H244.658H244.882H245.106H245.33H245.555H245.779H246.004H246.229H246.454H246.679H246.904H247.129H247.354H247.579H247.805H248.03H248.256H248.482H248.707H248.933H249.159H249.385H249.612H249.838H250.064H250.291H250.517H250.744H250.971H251.198H251.425H251.652H251.879H252.106H252.334H252.561H252.789H253.016H253.244H253.472H253.7H253.928H254.156H254.385H254.613H254.842H255.07H255.299H255.528H255.757H255.986H256.215H256.444H256.673H256.903H257.132H257.362H257.592H257.822H258.052H258.282H258.512H258.742H258.973H259.203H259.434H259.665H259.895H260.126H260.357H260.589H260.82H261.051H261.283H261.514H261.746H261.978H262.21H262.442H262.674H262.906H263.139H263.371H263.604H263.837H264.069H264.302H264.535H264.769H265.002H265.235H265.469H265.702H265.936H266.17H266.404H266.638H266.872H267.107H267.341H267.576H267.81H268.045H268.28H268.515H268.75H268.986H269.221H269.456H269.692H269.928H270.164H270.4H270.636H270.872H271.108H271.345H271.581H271.818H272.055H272.292H272.529H272.766H273.003H273.241H273.478H273.716H273.954H274.192H274.43H274.668H274.906H275.145H275.383H275.622H275.861H276.1H276.339H276.578H276.817H277.056H277.296H277.536H277.775H278.015H278.255H278.496H278.736H278.976H279.217H279.458H279.698H279.939H280.18H280.422H280.663H280.904H281.146H281.388H281.63H281.872H282.114H282.356H282.598H282.841H283.083H283.326H283.569H283.812H284.055H284.299H284.542H284.786H285.029H285.273H285.517H285.761H286.006H286.25H286.494H286.739H286.984H287.229H287.474H287.719H287.964H288.21H288.455H288.701H288.947H289.193H289.439H289.686H289.932H290.178H290.425H290.672H290.919H291.166H291.413H291.661H291.908H292.156H292.404H292.652H292.9H293.148H293.397C307.258 12.3293 318.5 23.5666 318.5 37.4281C318.5 51.2898 307.263 62.5269 293.401 62.5269H186.27C181.77 62.5269 177.396 64.0156 173.83 66.761C166.857 72.1296 157.143 72.1296 150.17 66.761C146.604 64.0156 142.23 62.5269 137.73 62.5269H29.5988C15.7371 62.5269 4.5 51.2898 4.5 37.4281C4.5 23.5666 15.741 12.3293 29.6028 12.3293H29.8536H30.1042H30.3546H30.6049H30.8551H31.1051H31.355H31.6047H31.8543H32.1038H32.3531H32.6022H32.8512H33.1001H33.3489H33.5975H33.8459H34.0942H34.3424H34.5905H34.8384H35.0861H35.3337H35.5812H35.8285H36.0757H36.3228H36.5697H36.8165H37.0632H37.3097H37.5561H37.8023H38.0484H38.2944H38.5402H38.7859H39.0314H39.2769H39.5221H39.7673H40.0123H40.2572H40.5019H40.7465H40.991H41.2354H41.4796H41.7237H41.9676H42.2114H42.4551H42.6987H42.9421H43.1854H43.4285H43.6715H43.9144H44.1572H44.3998H44.6423H44.8847H45.1269H45.369H45.611H45.8529H46.0946H46.3362H46.5777H46.819H47.0602H47.3013H47.5423H47.7831H48.0238H48.2644H48.5048H48.7452H48.9854H49.2254H49.4654H49.7052H49.9449H50.1845H50.424H50.6633H50.9025H51.1416H51.3805H51.6194H51.8581H52.0967H52.3351H52.5735H52.8117H53.0498H53.2878H53.5256H53.7634H54.001H54.2385H54.4758H54.7131H54.9502H55.1873H55.4242H55.6609H55.8976H56.1341H56.3706H56.6069H56.8431H57.0791H57.3151H57.5509H57.7866H58.0222H58.2577H58.4931H58.7284H58.9635H59.1985H59.4334H59.6682H59.9029H60.1375H60.3719H60.6063H60.8405H61.0746H61.3086H61.5425H61.7763H62.0099H62.2435H62.4769H62.7102H62.9434H63.1766H63.4095H63.6424H63.8752H64.1079H64.3404H64.5728H64.8052H65.0374H65.2695H65.5015H65.7334H65.9652H66.1969H66.4285H66.6599H66.8913H67.1225H67.3537H67.5847H67.8157H68.0465H68.2772H68.5078H68.7383H68.9687H69.199H69.4292H69.6593H69.8893H70.1192H70.349H70.5786H70.8082H71.0377H71.2671H71.4963H71.7255H71.9545H72.1835H72.4124H72.6411H72.8698H73.0983H73.3268H73.5551H73.7834H74.0116H74.2396H74.4676H74.6954H74.9232H75.1508H75.3784H75.6059H75.8332H76.0605H76.2877H76.5148H76.7417H76.9686H77.1954H77.4221H77.6487H77.8752H78.1016H78.3279H78.5541H78.7802H79.0063H79.2322H79.458H79.6838H79.9094H80.135H80.3605H80.5858H80.8111H81.0363H81.2614H81.4864H81.7113H81.9361H82.1609H82.3855H82.61H82.8345H83.0589H83.2832H83.5073H83.7315H83.9555H84.1794H84.4032H84.627H84.8506H85.0742H85.2977H85.5211H85.7444H85.9676H86.1908H86.4138H86.6368H86.8596H87.0824H87.3052H87.5278H87.7503H87.9728H88.1951H88.4174H88.6396H88.8617H89.0838H89.3057H89.5276H89.7494H89.9711H90.1927H90.4143H90.6357H90.8571H91.0784H91.2996H91.5207H91.7418H91.9628H92.1837H92.4045H92.6252H92.8459H93.0664H93.2869H93.5074H93.7277H93.948H94.1682H94.3883H94.6083H94.8282H95.0481H95.2679H95.4876H95.7073H95.9269H96.1464H96.3658H96.5851H96.8044H97.0236H97.2427H97.4618H97.6808H97.8997H98.1185H98.3372H98.5559H98.7745H98.9931H99.2115H99.4299H99.6483H99.8665H100.085H100.303H100.521H100.739H100.957H101.175H101.392H101.61H101.828H102.045H102.263H102.48H102.697H102.915H103.132H103.349H103.566H103.783H104H104.217H104.434H104.65H104.867H105.084H105.3H105.517H105.733H105.95H106.166H106.382H106.598H106.814H107.03H107.246H107.462H107.678H107.894H108.11H108.325H108.541H108.756H108.972H109.187H109.403H109.618H109.833H110.048H110.263H110.478H110.693H110.908H111.123H111.338H111.553H111.768H111.982H112.197H112.411H112.626H112.84H113.055H113.269H113.483H113.697H113.911H114.126H114.34H114.554H114.767H114.981H115.195H115.409H115.623H115.836H116.05H116.263H116.477H116.69H116.904H117.117H117.33H117.544H117.757H117.97H118.183H118.396H118.609H118.822H119.035H119.248H119.46H119.673H119.886H120.098H120.311H120.523H120.736H120.948H121.161H121.373H121.585H121.798H122.01H122.222H122.434H122.646H122.858H123.07H123.282H123.494H123.706H123.918H124.129H124.341H124.553H124.764H124.976H125.188H125.399H125.611H125.822H126.033H126.245H126.456H126.667H126.878H127.09H127.301H127.512H127.723H127.934H128.145H128.356H128.567H128.778H128.988H129.199H129.41H129.621H129.831H130.042H130.252H130.463H130.674H130.884H131.095H131.305H131.515H131.726H131.936H132.146H132.356H132.567H132.777H132.987H133.197H133.407H133.617H133.827H134.037H134.247H134.457H134.667H134.877H135.087H135.296H135.506H135.716H135.926H136.135H136.345H136.554H136.764H136.974H137.183H137.393H137.602H137.811H138.021H138.23H138.44H138.649H138.858H139.067H139.277H139.486H139.695H139.904H140.113H140.323H140.532H140.741H140.95H141.159H141.368H141.577H141.786H141.995H142.204H142.412H142.621H142.83H143.039H143.248H143.456H143.665H143.874H144.083H144.291H144.5C146.053 12.3293 147.543 11.5004 148.946 10.3703C150.349 9.23933 151.744 7.74007 153.106 6.2745Z" stroke="#F85151"/>
<path d="M151.939 46.3252C151.939 46.6133 151.886 46.868 151.78 47.0894C151.674 47.3091 151.523 47.493 151.326 47.6411C151.129 47.7892 150.89 47.9015 150.608 47.978C150.328 48.0529 150.014 48.0903 149.664 48.0903C149.314 48.0903 148.997 48.0529 148.714 47.978C148.432 47.9015 148.192 47.7892 147.994 47.6411C147.795 47.493 147.642 47.3091 147.535 47.0894C147.427 46.868 147.374 46.6133 147.374 46.3252C147.374 46.0371 147.427 45.7832 147.535 45.5635C147.642 45.3421 147.795 45.1574 147.994 45.0093C148.192 44.8612 148.432 44.7497 148.714 44.6748C148.997 44.5983 149.314 44.5601 149.664 44.5601C150.014 44.5601 150.328 44.5983 150.608 44.6748C150.89 44.7497 151.129 44.8612 151.326 45.0093C151.523 45.1574 151.674 45.3421 151.78 45.5635C151.886 45.7832 151.939 46.0371 151.939 46.3252ZM151.023 46.3252C151.023 46.1999 151.003 46.0754 150.962 45.9517C150.923 45.8263 150.853 45.714 150.75 45.6147C150.649 45.5155 150.511 45.4349 150.335 45.373C150.159 45.3112 149.935 45.2803 149.664 45.2803C149.481 45.2803 149.321 45.2949 149.183 45.3242C149.044 45.3519 148.925 45.391 148.824 45.4414C148.723 45.4919 148.638 45.5513 148.57 45.6196C148.501 45.6864 148.447 45.7588 148.406 45.8369C148.366 45.9134 148.336 45.994 148.318 46.0786C148.302 46.1616 148.294 46.2438 148.294 46.3252C148.294 46.4082 148.302 46.492 148.318 46.5767C148.336 46.6613 148.366 46.7427 148.406 46.8208C148.447 46.8973 148.501 46.9689 148.57 47.0356C148.638 47.1024 148.723 47.161 148.824 47.2114C148.925 47.2603 149.044 47.2993 149.183 47.3286C149.321 47.3563 149.481 47.3701 149.664 47.3701C149.935 47.3701 150.159 47.3392 150.335 47.2773C150.511 47.2155 150.649 47.1349 150.75 47.0356C150.853 46.9364 150.923 46.8249 150.962 46.7012C151.003 46.5758 151.023 46.4505 151.023 46.3252ZM154.349 45.3608C154.243 45.3608 154.148 45.3649 154.063 45.373C153.98 45.3812 153.909 45.4007 153.851 45.4316C153.792 45.4626 153.747 45.509 153.716 45.5708C153.685 45.631 153.67 45.714 153.67 45.8198V45.9443H156.199V46.6597H153.67V48H152.764V45.7441C152.764 45.5716 152.789 45.417 152.84 45.2803C152.892 45.1436 152.978 45.0288 153.099 44.936C153.219 44.8416 153.379 44.77 153.577 44.7212C153.776 44.6707 154.023 44.6455 154.319 44.6455H156.319V45.3608H154.349ZM158.68 45.3608C158.574 45.3608 158.479 45.3649 158.394 45.373C158.311 45.3812 158.24 45.4007 158.182 45.4316C158.123 45.4626 158.078 45.509 158.047 45.5708C158.016 45.631 158.001 45.714 158.001 45.8198V45.9443H160.53V46.6597H158.001V48H157.095V45.7441C157.095 45.5716 157.12 45.417 157.171 45.2803C157.223 45.1436 157.309 45.0288 157.43 44.936C157.55 44.8416 157.71 44.77 157.908 44.7212C158.107 44.6707 158.354 44.6455 158.65 44.6455H160.65V45.3608H158.68ZM162.332 46.5645C162.332 46.7044 162.345 46.8192 162.371 46.9087C162.397 46.9966 162.439 47.0666 162.498 47.1187C162.557 47.1707 162.632 47.2065 162.725 47.2261C162.819 47.2456 162.935 47.2554 163.072 47.2554H164.791V48H162.886C162.623 48 162.398 47.9788 162.212 47.9365C162.028 47.8926 161.878 47.8258 161.761 47.7363C161.644 47.6452 161.558 47.5304 161.504 47.3921C161.452 47.2537 161.426 47.0894 161.426 46.8989V44.6455H162.332V46.5645ZM165.518 48V44.6455H166.424V48H165.518ZM170.672 48V46.1201C170.672 45.9948 170.661 45.8817 170.64 45.7808C170.619 45.6782 170.579 45.5911 170.521 45.5195C170.464 45.4463 170.383 45.3901 170.279 45.3511C170.176 45.3104 170.044 45.29 169.881 45.29C169.757 45.29 169.627 45.3071 169.49 45.3413C169.355 45.3739 169.221 45.4178 169.087 45.4731C168.954 45.5285 168.826 45.5928 168.704 45.666C168.584 45.7393 168.476 45.8158 168.382 45.8955V48H167.476V44.6455H168.382V45.1045C168.496 45.0394 168.617 44.9751 168.746 44.9116C168.874 44.8465 169.011 44.7879 169.156 44.7358C169.301 44.6838 169.454 44.6414 169.617 44.6089C169.78 44.5763 169.952 44.5601 170.132 44.5601C170.359 44.5601 170.56 44.5877 170.738 44.6431C170.917 44.6968 171.068 44.7741 171.192 44.875C171.316 44.9743 171.41 45.0955 171.475 45.2388C171.542 45.3804 171.575 45.5391 171.575 45.7148V48H170.672ZM176.353 47.834C176.078 47.9251 175.803 47.9902 175.528 48.0293C175.254 48.07 174.974 48.0903 174.688 48.0903C174.322 48.0903 173.995 48.0513 173.709 47.9731C173.424 47.8934 173.184 47.7786 172.989 47.6289C172.793 47.4792 172.645 47.2961 172.542 47.0796C172.439 46.8631 172.388 46.6182 172.388 46.3447C172.388 46.0908 172.439 45.8556 172.542 45.6392C172.646 45.4211 172.793 45.2323 172.981 45.0728C173.172 44.9116 173.401 44.7863 173.67 44.6968C173.938 44.6056 174.238 44.5601 174.568 44.5601C174.873 44.5601 175.151 44.6016 175.403 44.6846C175.657 44.766 175.875 44.8872 176.055 45.0483C176.237 45.2095 176.378 45.408 176.478 45.644C176.578 45.88 176.629 46.1519 176.629 46.4595V46.6841H173.323C173.353 46.7899 173.401 46.8867 173.467 46.9746C173.536 47.0625 173.628 47.1374 173.743 47.1992C173.859 47.2611 174 47.3091 174.168 47.3433C174.337 47.3774 174.539 47.3945 174.773 47.3945C174.939 47.3945 175.102 47.3848 175.262 47.3652C175.421 47.3441 175.57 47.3172 175.708 47.2847C175.847 47.2505 175.971 47.2131 176.082 47.1724C176.194 47.1317 176.285 47.091 176.353 47.0503V47.834ZM175.728 46.02C175.72 45.937 175.695 45.8516 175.652 45.7637C175.612 45.6742 175.547 45.5936 175.457 45.522C175.368 45.4504 175.25 45.3918 175.105 45.3462C174.961 45.299 174.78 45.2754 174.563 45.2754C174.36 45.2754 174.184 45.3006 174.036 45.3511C173.888 45.4015 173.764 45.4642 173.663 45.5391C173.563 45.6139 173.486 45.6945 173.431 45.7808C173.375 45.867 173.34 45.9468 173.323 46.02H175.728Z" fill="white"/>
</g>
<defs>
<filter id="filter0_d_57_30" x="0" y="0" width="323" height="79.2875" filterUnits="userSpaceOnUse" color-interpolation-filters="sRGB">
<feFlood flood-opacity="0" result="BackgroundImageFix"/>
<feColorMatrix in="SourceAlpha" type="matrix" values="0 0 0 0 0 0 0 0 0 0 0 0 0 0 0 0 0 0 127 0" result="hardAlpha"/>
<feOffset dy="4"/>
<feGaussianBlur stdDeviation="2"/>
<feComposite in2="hardAlpha" operator="out"/>
<feColorMatrix type="matrix" values="0 0 0 0 0 0 0 0 0 0 0 0 0 0 0 0 0 0 0.25 0"/>
<feBlend mode="normal" in2="BackgroundImageFix" result="effect1_dropShadow_57_30"/>
<feBlend mode="normal" in="SourceGraphic" in2="effect1_dropShadow_57_30" result="shape"/>
</filter>
</defs>
</svg>
