<svg width="323" height="80" viewBox="0 0 323 80" fill="none" xmlns="http://www.w3.org/2000/svg">
<g filter="url(#filter0_d_57_27)">
<path d="M153.106 6.7745L161.157 1.00284C162.491 1.05092 163.874 1.70769 165.327 2.75406C166.832 3.83847 168.346 5.29044 169.894 6.77545L169.9 6.78145C171.433 8.25204 172.999 9.75489 174.574 10.887C176.148 12.0178 177.797 12.8293 179.5 12.8293H179.707H179.914H180.12H180.327H180.534H180.741H180.948H181.155H181.362H181.569H181.776H181.983H182.19H182.397H182.604H182.812H183.019H183.226H183.433H183.64H183.848H184.055H184.262H184.47H184.677H184.885H185.092H185.299H185.507H185.714H185.922H186.13H186.337H186.545H186.752H186.96H187.168H187.376H187.583H187.791H187.999H188.207H188.415H188.623H188.831H189.039H189.247H189.455H189.663H189.871H190.079H190.287H190.495H190.704H190.912H191.12H191.329H191.537H191.745H191.954H192.162H192.371H192.579H192.788H192.997H193.205H193.414H193.623H193.831H194.04H194.249H194.458H194.667H194.876H195.085H195.294H195.503H195.712H195.921H196.131H196.34H196.549H196.758H196.968H197.177H197.387H197.596H197.806H198.015H198.225H198.434H198.644H198.854H199.064H199.273H199.483H199.693H199.903H200.113H200.323H200.533H200.743H200.953H201.164H201.374H201.584H201.795H202.005H202.215H202.426H202.636H202.847H203.058H203.268H203.479H203.69H203.901H204.111H204.322H204.533H204.744H204.955H205.167H205.378H205.589H205.8H206.011H206.223H206.434H206.646H206.857H207.069H207.28H207.492H207.704H207.916H208.127H208.339H208.551H208.763H208.975H209.187H209.4H209.612H209.824H210.036H210.249H210.461H210.674H210.886H211.099H211.311H211.524H211.737H211.95H212.163H212.376H212.589H212.802H213.015H213.228H213.441H213.654H213.868H214.081H214.295H214.508H214.722H214.936H215.149H215.363H215.577H215.791H216.005H216.219H216.433H216.647H216.861H217.075H217.29H217.504H217.719H217.933H218.148H218.362H218.577H218.792H219.007H219.222H219.437H219.652H219.867H220.082H220.297H220.512H220.728H220.943H221.159H221.374H221.59H221.806H222.022H222.237H222.453H222.669H222.885H223.101H223.318H223.534H223.75H223.967H224.183H224.4H224.616H224.833H225.05H225.267H225.484H225.701H225.918H226.135H226.352H226.569H226.787H227.004H227.221H227.439H227.657H227.874H228.092H228.31H228.528H228.746H228.964H229.182H229.4H229.619H229.837H230.056H230.274H230.493H230.712H230.93H231.149H231.368H231.587H231.806H232.026H232.245H232.464H232.684H232.903H233.123H233.342H233.562H233.782H234.002H234.222H234.442H234.662H234.882H235.103H235.323H235.543H235.764H235.985H236.205H236.426H236.647H236.868H237.089H237.31H237.532H237.753H237.974H238.196H238.417H238.639H238.861H239.083H239.305H239.527H239.749H239.971H240.193H240.415H240.638H240.86H241.083H241.306H241.529H241.752H241.975H242.198H242.421H242.644H242.867H243.091H243.314H243.538H243.762H243.986H244.209H244.433H244.658H244.882H245.106H245.33H245.555H245.779H246.004H246.229H246.454H246.679H246.904H247.129H247.354H247.579H247.805H248.03H248.256H248.482H248.707H248.933H249.159H249.385H249.612H249.838H250.064H250.291H250.517H250.744H250.971H251.198H251.425H251.652H251.879H252.106H252.334H252.561H252.789H253.016H253.244H253.472H253.7H253.928H254.156H254.385H254.613H254.842H255.07H255.299H255.528H255.757H255.986H256.215H256.444H256.673H256.903H257.132H257.362H257.592H257.822H258.052H258.282H258.512H258.742H258.973H259.203H259.434H259.665H259.895H260.126H260.357H260.589H260.82H261.051H261.283H261.514H261.746H261.978H262.21H262.442H262.674H262.906H263.139H263.371H263.604H263.837H264.069H264.302H264.535H264.769H265.002H265.235H265.469H265.702H265.936H266.17H266.404H266.638H266.872H267.107H267.341H267.576H267.81H268.045H268.28H268.515H268.75H268.986H269.221H269.456H269.692H269.928H270.164H270.4H270.636H270.872H271.108H271.345H271.581H271.818H272.055H272.292H272.529H272.766H273.003H273.241H273.478H273.716H273.954H274.192H274.43H274.668H274.906H275.145H275.383H275.622H275.861H276.1H276.339H276.578H276.817H277.056H277.296H277.536H277.775H278.015H278.255H278.496H278.736H278.976H279.217H279.458H279.698H279.939H280.18H280.422H280.663H280.904H281.146H281.388H281.63H281.872H282.114H282.356H282.598H282.841H283.083H283.326H283.569H283.812H284.055H284.299H284.542H284.786H285.029H285.273H285.517H285.761H286.006H286.25H286.494H286.739H286.984H287.229H287.474H287.719H287.964H288.21H288.455H288.701H288.947H289.193H289.439H289.686H289.932H290.178H290.425H290.672H290.919H291.166H291.413H291.661H291.908H292.156H292.404H292.652H292.9H293.148H293.397C307.258 12.8293 318.5 24.0666 318.5 37.9281C318.5 51.7898 307.263 63.0269 293.401 63.0269H186.27C181.77 63.0269 177.396 64.5156 173.83 67.261C166.857 72.6296 157.143 72.6296 150.17 67.261C146.604 64.5156 142.23 63.0269 137.73 63.0269H29.5988C15.7371 63.0269 4.5 51.7898 4.5 37.9281C4.5 24.0666 15.741 12.8293 29.6028 12.8293H29.8536H30.1042H30.3546H30.6049H30.8551H31.1051H31.355H31.6047H31.8543H32.1038H32.3531H32.6022H32.8512H33.1001H33.3489H33.5975H33.8459H34.0942H34.3424H34.5905H34.8384H35.0861H35.3337H35.5812H35.8285H36.0757H36.3228H36.5697H36.8165H37.0632H37.3097H37.5561H37.8023H38.0484H38.2944H38.5402H38.7859H39.0314H39.2769H39.5221H39.7673H40.0123H40.2572H40.5019H40.7465H40.991H41.2354H41.4796H41.7237H41.9676H42.2114H42.4551H42.6987H42.9421H43.1854H43.4285H43.6715H43.9144H44.1572H44.3998H44.6423H44.8847H45.1269H45.369H45.611H45.8529H46.0946H46.3362H46.5777H46.819H47.0602H47.3013H47.5423H47.7831H48.0238H48.2644H48.5048H48.7452H48.9854H49.2254H49.4654H49.7052H49.9449H50.1845H50.424H50.6633H50.9025H51.1416H51.3805H51.6194H51.8581H52.0967H52.3351H52.5735H52.8117H53.0498H53.2878H53.5256H53.7634H54.001H54.2385H54.4758H54.7131H54.9502H55.1873H55.4242H55.6609H55.8976H56.1341H56.3706H56.6069H56.8431H57.0791H57.3151H57.5509H57.7866H58.0222H58.2577H58.4931H58.7284H58.9635H59.1985H59.4334H59.6682H59.9029H60.1375H60.3719H60.6063H60.8405H61.0746H61.3086H61.5425H61.7763H62.0099H62.2435H62.4769H62.7102H62.9434H63.1766H63.4095H63.6424H63.8752H64.1079H64.3404H64.5728H64.8052H65.0374H65.2695H65.5015H65.7334H65.9652H66.1969H66.4285H66.6599H66.8913H67.1225H67.3537H67.5847H67.8157H68.0465H68.2772H68.5078H68.7383H68.9687H69.199H69.4292H69.6593H69.8893H70.1192H70.349H70.5786H70.8082H71.0377H71.2671H71.4963H71.7255H71.9545H72.1835H72.4124H72.6411H72.8698H73.0983H73.3268H73.5551H73.7834H74.0116H74.2396H74.4676H74.6954H74.9232H75.1508H75.3784H75.6059H75.8332H76.0605H76.2877H76.5148H76.7417H76.9686H77.1954H77.4221H77.6487H77.8752H78.1016H78.3279H78.5541H78.7802H79.0063H79.2322H79.458H79.6838H79.9094H80.135H80.3605H80.5858H80.8111H81.0363H81.2614H81.4864H81.7113H81.9361H82.1609H82.3855H82.61H82.8345H83.0589H83.2832H83.5073H83.7315H83.9555H84.1794H84.4032H84.627H84.8506H85.0742H85.2977H85.5211H85.7444H85.9676H86.1908H86.4138H86.6368H86.8596H87.0824H87.3052H87.5278H87.7503H87.9728H88.1951H88.4174H88.6396H88.8617H89.0838H89.3057H89.5276H89.7494H89.9711H90.1927H90.4143H90.6357H90.8571H91.0784H91.2996H91.5207H91.7418H91.9628H92.1837H92.4045H92.6252H92.8459H93.0664H93.2869H93.5074H93.7277H93.948H94.1682H94.3883H94.6083H94.8282H95.0481H95.2679H95.4876H95.7073H95.9269H96.1464H96.3658H96.5851H96.8044H97.0236H97.2427H97.4618H97.6808H97.8997H98.1185H98.3372H98.5559H98.7745H98.9931H99.2115H99.4299H99.6483H99.8665H100.085H100.303H100.521H100.739H100.957H101.175H101.392H101.61H101.828H102.045H102.263H102.48H102.697H102.915H103.132H103.349H103.566H103.783H104H104.217H104.434H104.65H104.867H105.084H105.3H105.517H105.733H105.95H106.166H106.382H106.598H106.814H107.03H107.246H107.462H107.678H107.894H108.11H108.325H108.541H108.756H108.972H109.187H109.403H109.618H109.833H110.048H110.263H110.478H110.693H110.908H111.123H111.338H111.553H111.768H111.982H112.197H112.411H112.626H112.84H113.055H113.269H113.483H113.697H113.911H114.126H114.34H114.554H114.767H114.981H115.195H115.409H115.623H115.836H116.05H116.263H116.477H116.69H116.904H117.117H117.33H117.544H117.757H117.97H118.183H118.396H118.609H118.822H119.035H119.248H119.46H119.673H119.886H120.098H120.311H120.523H120.736H120.948H121.161H121.373H121.585H121.798H122.01H122.222H122.434H122.646H122.858H123.07H123.282H123.494H123.706H123.918H124.129H124.341H124.553H124.764H124.976H125.188H125.399H125.611H125.822H126.033H126.245H126.456H126.667H126.878H127.09H127.301H127.512H127.723H127.934H128.145H128.356H128.567H128.778H128.988H129.199H129.41H129.621H129.831H130.042H130.252H130.463H130.674H130.884H131.095H131.305H131.515H131.726H131.936H132.146H132.356H132.567H132.777H132.987H133.197H133.407H133.617H133.827H134.037H134.247H134.457H134.667H134.877H135.087H135.296H135.506H135.716H135.926H136.135H136.345H136.554H136.764H136.974H137.183H137.393H137.602H137.811H138.021H138.23H138.44H138.649H138.858H139.067H139.277H139.486H139.695H139.904H140.113H140.323H140.532H140.741H140.95H141.159H141.368H141.577H141.786H141.995H142.204H142.412H142.621H142.83H143.039H143.248H143.456H143.665H143.874H144.083H144.291H144.5C146.053 12.8293 147.543 12.0004 148.946 10.8703C150.349 9.73933 151.744 8.24007 153.106 6.7745Z" stroke="#B4E743"/>
<circle cx="29.5" cy="39.5" r="5.5" fill="#BAE948"/>
<circle cx="291.5" cy="39.5" r="5.5" fill="#BAE948"/>
<path d="M156 26L162.102 35L168 26" stroke="#BAE948" stroke-width="3"/>
<path d="M153.702 46.3252C153.702 46.6133 153.649 46.868 153.543 47.0894C153.437 47.3091 153.286 47.493 153.089 47.6411C152.892 47.7892 152.653 47.9015 152.371 47.978C152.091 48.0529 151.776 48.0903 151.426 48.0903C151.076 48.0903 150.76 48.0529 150.477 47.978C150.195 47.9015 149.955 47.7892 149.756 47.6411C149.558 47.493 149.405 47.3091 149.297 47.0894C149.19 46.868 149.136 46.6133 149.136 46.3252C149.136 46.0371 149.19 45.7832 149.297 45.5635C149.405 45.3421 149.558 45.1574 149.756 45.0093C149.955 44.8612 150.195 44.7497 150.477 44.6748C150.76 44.5983 151.076 44.5601 151.426 44.5601C151.776 44.5601 152.091 44.5983 152.371 44.6748C152.653 44.7497 152.892 44.8612 153.089 45.0093C153.286 45.1574 153.437 45.3421 153.543 45.5635C153.649 45.7832 153.702 46.0371 153.702 46.3252ZM152.786 46.3252C152.786 46.1999 152.766 46.0754 152.725 45.9517C152.686 45.8263 152.615 45.714 152.513 45.6147C152.412 45.5155 152.273 45.4349 152.098 45.373C151.922 45.3112 151.698 45.2803 151.426 45.2803C151.244 45.2803 151.084 45.2949 150.945 45.3242C150.807 45.3519 150.687 45.391 150.586 45.4414C150.486 45.4919 150.401 45.5513 150.333 45.6196C150.264 45.6864 150.21 45.7588 150.169 45.8369C150.128 45.9134 150.099 45.994 150.081 46.0786C150.065 46.1616 150.057 46.2438 150.057 46.3252C150.057 46.4082 150.065 46.492 150.081 46.5767C150.099 46.6613 150.128 46.7427 150.169 46.8208C150.21 46.8973 150.264 46.9689 150.333 47.0356C150.401 47.1024 150.486 47.161 150.586 47.2114C150.687 47.2603 150.807 47.2993 150.945 47.3286C151.084 47.3563 151.244 47.3701 151.426 47.3701C151.698 47.3701 151.922 47.3392 152.098 47.2773C152.273 47.2155 152.412 47.1349 152.513 47.0356C152.615 46.9364 152.686 46.8249 152.725 46.7012C152.766 46.5758 152.786 46.4505 152.786 46.3252ZM157.723 48V46.1201C157.723 45.9948 157.712 45.8817 157.691 45.7808C157.67 45.6782 157.63 45.5911 157.571 45.5195C157.514 45.4463 157.434 45.3901 157.33 45.3511C157.227 45.3104 157.094 45.29 156.932 45.29C156.808 45.29 156.678 45.3071 156.541 45.3413C156.406 45.3739 156.272 45.4178 156.138 45.4731C156.005 45.5285 155.877 45.5928 155.755 45.666C155.634 45.7393 155.527 45.8158 155.433 45.8955V48H154.527V44.6455H155.433V45.1045C155.547 45.0394 155.668 44.9751 155.796 44.9116C155.925 44.8465 156.062 44.7879 156.207 44.7358C156.351 44.6838 156.505 44.6414 156.668 44.6089C156.831 44.5763 157.002 44.5601 157.183 44.5601C157.409 44.5601 157.611 44.5877 157.789 44.6431C157.968 44.6968 158.119 44.7741 158.243 44.875C158.366 44.9743 158.461 45.0955 158.526 45.2388C158.593 45.3804 158.626 45.5391 158.626 45.7148V48H157.723ZM160.569 46.5645C160.569 46.7044 160.582 46.8192 160.608 46.9087C160.634 46.9966 160.677 47.0666 160.735 47.1187C160.794 47.1707 160.87 47.2065 160.962 47.2261C161.057 47.2456 161.172 47.2554 161.309 47.2554H163.028V48H161.124C160.86 48 160.635 47.9788 160.45 47.9365C160.266 47.8926 160.115 47.8258 159.998 47.7363C159.881 47.6452 159.795 47.5304 159.742 47.3921C159.69 47.2537 159.664 47.0894 159.664 46.8989V44.6455H160.569V46.5645ZM163.755 48V44.6455H164.661V48H163.755ZM168.909 48V46.1201C168.909 45.9948 168.899 45.8817 168.877 45.7808C168.856 45.6782 168.816 45.5911 168.758 45.5195C168.701 45.4463 168.62 45.3901 168.516 45.3511C168.414 45.3104 168.281 45.29 168.118 45.29C167.994 45.29 167.864 45.3071 167.728 45.3413C167.592 45.3739 167.458 45.4178 167.325 45.4731C167.191 45.5285 167.063 45.5928 166.941 45.666C166.821 45.7393 166.714 45.8158 166.619 45.8955V48H165.713V44.6455H166.619V45.1045C166.733 45.0394 166.854 44.9751 166.983 44.9116C167.111 44.8465 167.248 44.7879 167.393 44.7358C167.538 44.6838 167.692 44.6414 167.854 44.6089C168.017 44.5763 168.189 44.5601 168.37 44.5601C168.596 44.5601 168.798 44.5877 168.975 44.6431C169.154 44.6968 169.306 44.7741 169.429 44.875C169.553 44.9743 169.647 45.0955 169.712 45.2388C169.779 45.3804 169.812 45.5391 169.812 45.7148V48H168.909ZM174.59 47.834C174.315 47.9251 174.04 47.9902 173.765 48.0293C173.492 48.07 173.212 48.0903 172.925 48.0903C172.559 48.0903 172.233 48.0513 171.946 47.9731C171.661 47.8934 171.421 47.7786 171.226 47.6289C171.031 47.4792 170.882 47.2961 170.779 47.0796C170.677 46.8631 170.625 46.6182 170.625 46.3447C170.625 46.0908 170.677 45.8556 170.779 45.6392C170.883 45.4211 171.03 45.2323 171.219 45.0728C171.409 44.9116 171.639 44.7863 171.907 44.6968C172.176 44.6056 172.475 44.5601 172.806 44.5601C173.11 44.5601 173.388 44.6016 173.641 44.6846C173.895 44.766 174.112 44.8872 174.292 45.0483C174.475 45.2095 174.616 45.408 174.715 45.644C174.816 45.88 174.866 46.1519 174.866 46.4595V46.6841H171.561C171.59 46.7899 171.638 46.8867 171.705 46.9746C171.773 47.0625 171.865 47.1374 171.98 47.1992C172.096 47.2611 172.238 47.3091 172.405 47.3433C172.575 47.3774 172.776 47.3945 173.011 47.3945C173.177 47.3945 173.34 47.3848 173.499 47.3652C173.659 47.3441 173.807 47.3172 173.946 47.2847C174.084 47.2505 174.209 47.2131 174.319 47.1724C174.432 47.1317 174.522 47.091 174.59 47.0503V47.834ZM173.965 46.02C173.957 45.937 173.932 45.8516 173.89 45.7637C173.849 45.6742 173.784 45.5936 173.694 45.522C173.605 45.4504 173.488 45.3918 173.343 45.3462C173.198 45.299 173.017 45.2754 172.801 45.2754C172.597 45.2754 172.422 45.3006 172.273 45.3511C172.125 45.4015 172.001 45.4642 171.9 45.5391C171.801 45.6139 171.723 45.6945 171.668 45.7808C171.613 45.867 171.577 45.9468 171.561 46.02H173.965Z" fill="white"/>
</g>
<defs>
<filter id="filter0_d_57_27" x="0" y="0.5" width="323" height="79.2875" filterUnits="userSpaceOnUse" color-interpolation-filters="sRGB">
<feFlood flood-opacity="0" result="BackgroundImageFix"/>
<feColorMatrix in="SourceAlpha" type="matrix" values="0 0 0 0 0 0 0 0 0 0 0 0 0 0 0 0 0 0 127 0" result="hardAlpha"/>
<feOffset dy="4"/>
<feGaussianBlur stdDeviation="2"/>
<feComposite in2="hardAlpha" operator="out"/>
<feColorMatrix type="matrix" values="0 0 0 0 0 0 0 0 0 0 0 0 0 0 0 0 0 0 0.25 0"/>
<feBlend mode="normal" in2="BackgroundImageFix" result="effect1_dropShadow_57_27"/>
<feBlend mode="normal" in="SourceGraphic" in2="effect1_dropShadow_57_27" result="shape"/>
</filter>
</defs>
</svg>
